optRun
version=1
nRows=22
nColumns=21
inDegrees=no
endheader
time	r_shoulder_elev	r_elbow_flex	r_shoulder_elev_u	r_elbow_flex_u	TRIlong.activation	TRIlong.fiber_length	TRIlat.activation	TRIlat.fiber_length	TRImed.activation	TRImed.fiber_length	BIClong.activation	BIClong.fiber_length	BICshort.activation	BICshort.fiber_length	BRA.activation	BRA.fiber_length	DeltAnt.activation	DeltAnt.fiber_length	DeltPost.activation	DeltPost.fiber_length
        0.502632	        0.461004	       -0.594535	        1.424207	       -2.555558	        0.249594	        0.150286	        0.068467	        0.068918	        0.133464	        0.063733	        0.517940	        0.134641	        0.189593	        0.148258	        0.082510	        0.081747	        0.170645	        0.145059	        0.188208	        0.127552
        0.504676	        0.463912	       -0.599632	        1.419105	       -2.429061	        0.250296	        0.150479	        0.068741	        0.069009	        0.133910	        0.063824	        0.519277	        0.134524	        0.189919	        0.148246	        0.082649	        0.081672	        0.170983	        0.144949	        0.188610	        0.127655
        0.506797	        0.466921	       -0.604654	        1.419699	       -2.309385	        0.251023	        0.150675	        0.069028	        0.069100	        0.134375	        0.063915	        0.520661	        0.134403	        0.190257	        0.148235	        0.082793	        0.081597	        0.171332	        0.144834	        0.189027	        0.127756
        0.508914	        0.469924	       -0.609412	        1.415817	       -2.182025	        0.251747	        0.150867	        0.069315	        0.069188	        0.134839	        0.064002	        0.522037	        0.134285	        0.190593	        0.148225	        0.082937	        0.081525	        0.171679	        0.144721	        0.189444	        0.127862
        0.510899	        0.472735	       -0.613633	        1.418238	       -2.074878	        0.252425	        0.151044	        0.069586	        0.069266	        0.135275	        0.064080	        0.523325	        0.134175	        0.190909	        0.148218	        0.083072	        0.081460	        0.172003	        0.144614	        0.189835	        0.127956
        0.512885	        0.475550	       -0.617642	        1.415987	       -1.959673	        0.253103	        0.151216	        0.069859	        0.069341	        0.135712	        0.064155	        0.524610	        0.134067	        0.191225	        0.148213	        0.083208	        0.081399	        0.172326	        0.144507	        0.190228	        0.128056
        0.515014	        0.478565	       -0.621689	        1.418250	       -1.846264	        0.253828	        0.151398	        0.070153	        0.069418	        0.136181	        0.064232	        0.525984	        0.133953	        0.191563	        0.148209	        0.083353	        0.081336	        0.172671	        0.144393	        0.190649	        0.128157
        0.517150	        0.481596	       -0.625510	        1.417233	       -1.727628	        0.254555	        0.151575	        0.070450	        0.069491	        0.136653	        0.064305	        0.527359	        0.133841	        0.191903	        0.148208	        0.083499	        0.081275	        0.173015	        0.144278	        0.191072	        0.128265
        0.519152	        0.484435	       -0.628863	        1.421067	       -1.627027	        0.255235	        0.151738	        0.070729	        0.069556	        0.137096	        0.064370	        0.528643	        0.133737	        0.192221	        0.148209	        0.083636	        0.081222	        0.173337	        0.144171	        0.191469	        0.128360
        0.521087	        0.487186	       -0.631914	        1.421060	       -1.524227	        0.255892	        0.151891	        0.071001	        0.069616	        0.137525	        0.064429	        0.529881	        0.133639	        0.192528	        0.148210	        0.083769	        0.081173	        0.173646	        0.144066	        0.191853	        0.128458
        0.523074	        0.490011	       -0.634843	        1.424533	       -1.426934	        0.256565	        0.152046	        0.071282	        0.069674	        0.137967	        0.064487	        0.531150	        0.133540	        0.192844	        0.148214	        0.083905	        0.081125	        0.173963	        0.143959	        0.192249	        0.128554
        0.525188	        0.493024	       -0.637748	        1.425358	       -1.320032	        0.257280	        0.152206	        0.071582	        0.069731	        0.138437	        0.064545	        0.532496	        0.133436	        0.193179	        0.148219	        0.084050	        0.081077	        0.174299	        0.143845	        0.192670	        0.128660
        0.527250	        0.495967	       -0.640369	        1.429923	       -1.225019	        0.257977	        0.152359	        0.071877	        0.069785	        0.138897	        0.064599	        0.533805	        0.133337	        0.193506	        0.148226	        0.084191	        0.081034	        0.174625	        0.143734	        0.193081	        0.128760
        0.529163	        0.498705	       -0.642626	        1.431267	       -1.133442	        0.258623	        0.152498	        0.072152	        0.069831	        0.139324	        0.064645	        0.535016	        0.133248	        0.193810	        0.148235	        0.084322	        0.080996	        0.174926	        0.143630	        0.193463	        0.128857
        0.531053	        0.501413	       -0.644688	        1.435347	       -1.050158	        0.259259	        0.152632	        0.072425	        0.069873	        0.139747	        0.064688	        0.536210	        0.133161	        0.194109	        0.148246	        0.084452	        0.080960	        0.175223	        0.143527	        0.193841	        0.128950
        0.532976	        0.504175	       -0.646625	        1.437189	       -0.963203	        0.259907	        0.152765	        0.072704	        0.069914	        0.140178	        0.064728	        0.537421	        0.133074	        0.194414	        0.148259	        0.084585	        0.080927	        0.175523	        0.143423	        0.194226	        0.129048
        0.535060	        0.507175	       -0.648540	        1.441828	       -0.876445	        0.260607	        0.152906	        0.073008	        0.069955	        0.140646	        0.064769	        0.538731	        0.132982	        0.194744	        0.148276	        0.084728	        0.080893	        0.175848	        0.143309	        0.194644	        0.129151
        0.537027	        0.510014	       -0.650183	        1.444247	       -0.793358	        0.261267	        0.153036	        0.073297	        0.069991	        0.141088	        0.064805	        0.539964	        0.132897	        0.195056	        0.148294	        0.084863	        0.080864	        0.176153	        0.143201	        0.195039	        0.129251
        0.538908	        0.512734	       -0.651605	        1.448723	       -0.720274	        0.261897	        0.153158	        0.073574	        0.070022	        0.141512	        0.064836	        0.541139	        0.132818	        0.195353	        0.148315	        0.084993	        0.080838	        0.176443	        0.143098	        0.195418	        0.129345
        0.540730	        0.515376	       -0.652851	        1.450914	       -0.647617	        0.262507	        0.153273	        0.073844	        0.070050	        0.141923	        0.064865	        0.542275	        0.132743	        0.195642	        0.148337	        0.085119	        0.080815	        0.176724	        0.142998	        0.195784	        0.129439
        0.542538	        0.518002	       -0.653960	        1.454627	       -0.580545	        0.263112	        0.153385	        0.074113	        0.070076	        0.142332	        0.064890	        0.543399	        0.132670	        0.195928	        0.148361	        0.085243	        0.080794	        0.177001	        0.142898	        0.196149	        0.129530
        0.544506	        0.520868	       -0.655032	        1.457694	       -0.508165	        0.263768	        0.153505	        0.074407	        0.070101	        0.142778	        0.064916	        0.544620	        0.132592	        0.196239	        0.148391	        0.085379	        0.080773	        0.177302	        0.142790	        0.196546	        0.129631
